{"title":"Ayrton Senna (1995) DVDrip","uid":8428145,"size":596255569,"categoryP":"video","categoryS":"movies","magnet":"?xt=urn:btih:d79ea932ab5d72bb8496fa4bfa962c1f41b336d3&amp;dn=Ayrton+Senna+%281995%29+DVDrip&amp;tr=udp%3A%2F%2Ftracker.openbittorrent.com%3A80&amp;tr=udp%3A%2F%2Fopen.demonii.com%3A1337&amp;tr=udp%3A%2F%2Ftracker.coppersurfer.tk%3A6969&amp;tr=udp%3A%2F%2Fexodus.desync.com%3A6969","seeders":0,"leechers":0,"uploader":"rassouli5","files":-1,"time":1367413293,"description":"The BBC's award winning documentary looking at the impact the death of Ayrton Senna had upon the world of motor racing. Featuring interviews with key people from Senna's life in motor sport. \n\nSCREENCAPS: &lt;a href=&quot;\nhttps://yuq.me/u/912008/TUemzWFRwb.png&quot; rel=&quot;nofollow&quot; target=&quot;_NEW&quot;&gt;\nhttps://yuq.me/u/912008/TUemzWFRwb.png&lt;/a&gt;\n\n\nVideo\nID : 1\nFormat : AVC\nFormat/Info : Advanced Video Codec\nFormat profile : &lt;a class=&quot;__cf_email__&quot; href=&quot;/cdn-cgi/l/email-protection&quot; data-cfemail=&quot;72301301171e1b1c17323e415c42&quot;&gt;[email&amp;#160;protected]&lt;/a&gt;&lt;script data-cfhash='f9e31' type=&quot;text/javascript&quot;&gt;\n/* &lt;![CDATA[ */!function(){try{var t=&quot;currentScript&quot;in document?document.currentScript:function(){for(var t=document.getElementsByTagName(&quot;script&quot;),e=t.length;e--;)if(t[e].getAttribute(&quot;data-cfhash&quot;))return t[e]}();if(t&amp;&amp;t.previousSibling){var e,r,n,i,c=t.previousSibling,a=c.getAttribute(&quot;data-cfemail&quot;);if(a){for(e=&quot;&quot;,r=parseInt(a.substr(0,2),16),n=2;a.length-n;n+=2)i=parseInt(a.substr(n,2),16)^r,e+=String.fromCharCode(i);e=document.createTextNode(e),c.parentNode.replaceChild(e,c)}t.parentNode.removeChild(t);}}catch(u){}}()/* ]]&gt; */&lt;/script&gt;\nFormat settings, CABAC : No\nFormat settings, ReFrames : 1 frame\nFormat settings, GOP : M=1, N=120\nCodec ID : avc1\nCodec ID/Info : Advanced Video Coding\nDuration : 49mn 17s\nBit rate mode : Variable\nBit rate : 1 503 Kbps\nMaximum bit rate : 4 006 Kbps\nWidth : 640 pixels\nHeight : 480 pixels\nDisplay aspect ratio : 4:3\nFrame rate mode : Constant\nFrame rate : 25.000 fps\nColor space : YUV\nChroma subsampling : 4:2:0\nBit depth : 8 bits\nScan type : Progressive\nBits/(Pixel*Frame) : 0.196\nStream size : 530 MiB (93%)\nLanguage : English\nEncoded date : UTC 2012-12-20 12:03:15\nTagged date : UTC 2012-12-20 12:41:59\nColor primaries : BT.601 NTSC\nTransfer characteristics : BT.709\nMatrix coefficients : BT.601\n\nAudio\nID : 2\nFormat : AAC\nFormat/Info : Advanced Audio Codec\nFormat profile : LC\nCodec ID : 40\nDuration : 49mn 17s\nBit rate mode : Constant\nBit rate : 106 Kbps\nNominal bit rate : 128 Kbps\nChannel(s) : 2 channels\nChannel positions : Front: L R\nSampling rate : 44.1 KHz\nCompression mode : Lossy\nStream size : 37.5 MiB (7%)\nLanguage : English ","torrent":{"xt":"urn:btih:d79ea932ab5d72bb8496fa4bfa962c1f41b336d3","amp;dn":"Ayrton+Senna+%281995%29+DVDrip","amp;tr":["udp%3A%2F%2Ftracker.openbittorrent.com%3A80","udp%3A%2F%2Fopen.demonii.com%3A1337","udp%3A%2F%2Ftracker.coppersurfer.tk%3A6969","udp%3A%2F%2Fexodus.desync.com%3A6969"],"infoHash":"d79ea932ab5d72bb8496fa4bfa962c1f41b336d3","infoHashBuffer":{"type":"Buffer","data":[215,158,169,50,171,93,114,187,132,150,250,75,250,150,44,31,65,179,54,211]},"announce":[],"urlList":[]}}